<?xml version="1.0" encoding="UTF-8"?>
<svg width="13px" height="9px" viewBox="0 0 13 9" version="1.1" xmlns="http://www.w3.org/2000/svg" xmlns:xlink="http://www.w3.org/1999/xlink">
    <!-- Generator: Sketch 51.2 (57519) - http://www.bohemiancoding.com/sketch -->
    <title>ic_email</title>
    <desc>Created with Sketch.</desc>
    <defs>
        <linearGradient x1="-147.318671%" y1="183.468149%" x2="518.84163%" y2="-207.053811%" id="linearGradient-1">
            <stop stop-color="#33E0FF" offset="0%"></stop>
            <stop stop-color="#0037F2" offset="100%"></stop>
        </linearGradient>
    </defs>
    <g id="UI" stroke="none" stroke-width="1" fill="none" fill-rule="evenodd">
        <g id="Wee--M2" transform="translate(-50.000000, -1351.000000)" fill="url(#linearGradient-1)" fill-rule="nonzero">
            <g id="Group-5" transform="translate(34.000000, 1309.000000)">
                <g id="ic_email" transform="translate(16.000000, 42.000000)">
                    <path d="M0.999999444,0 C0.803432887,0 0.623016321,0.0605332997 0.46874974,0.161466577 L6.09896328,5.49480195 C6.34559647,5.72858515 6.66522963,5.72856848 6.91146283,5.49480195 L12.531243,0.161466577 C12.3769765,0.0605332997 12.1965599,0 11.9999933,0 L0.999999444,0 Z M0.0624999653,0.687499618 C0.0244166531,0.797599557 0,0.91241616 0,1.03646609 L0,7.96353391 C0,8.17403379 0.0586166341,8.36798368 0.161466577,8.53125026 L4.14063103,4.55730247 L0.0624999653,0.687499618 Z M12.9374928,0.687499618 L8.86979507,4.5520858 L12.8385262,8.53125026 C12.9413761,8.36798368 12.9999928,8.17403379 12.9999928,7.96353391 L12.9999928,1.03646609 C12.9999928,0.91241616 12.9755761,0.797599557 12.9374928,0.687499618 Z M8.38541201,5.01563555 L7.36979591,5.97916834 C6.88616284,6.43835142 6.12432993,6.43770142 5.6406302,5.97916834 L4.62499743,5.02083554 L0.687499618,8.9479167 C0.785982897,8.98141668 0.890466172,9 0.999999444,9 L11.9999933,9 C12.1095266,9 12.2140099,8.98141668 12.3124932,8.9479167 L8.38541201,5.01563555 Z" id="Shape"></path>
                </g>
            </g>
        </g>
    </g>
</svg>