<svg xmlns="http://www.w3.org/2000/svg" viewBox="0 0 159.97 62.03"><defs><style>.cls-1{fill:none;}.cls-2{fill:#fff;}</style></defs><title>wee_logo</title><g id="Layer_2" data-name="Layer 2"><g id="Wee"><path class="cls-1" d="M83.13,32.56a9.53,9.53,0,0,0-2.94-2.14,9,9,0,0,0-3.86-.82,10.26,10.26,0,0,0-4,.75,9.13,9.13,0,0,0-3.09,2.07,10.24,10.24,0,0,0-2.06,3.1,10.45,10.45,0,0,0-.84,3.85H85.88A13,13,0,0,0,85,35.66,10,10,0,0,0,83.13,32.56Z"/><path class="cls-1" d="M125.06,32.56a9.53,9.53,0,0,0-2.94-2.14,9,9,0,0,0-3.86-.82,10.29,10.29,0,0,0-4,.75,9.22,9.22,0,0,0-3.09,2.07,10.24,10.24,0,0,0-2.06,3.1,10.65,10.65,0,0,0-.84,3.85h19.54a12.36,12.36,0,0,0-.84-3.71A9.86,9.86,0,0,0,125.06,32.56Z"/><path class="cls-2" d="M159.87.73a.64.64,0,0,0-.66-.64L130.46,0a10.3,10.3,0,0,0-7.2,2.88L113.84,12l33.61.11.11,32.61L157,35.59a9.66,9.66,0,0,0,3-7Z"/><polygon class="cls-2" points="39.02 51.7 38.87 51.7 32.04 24.19 23.59 24.19 16.46 51.7 16.31 51.7 8.89 24.19 0 24.19 11.76 61.03 20.57 61.03 27.55 33.67 27.7 33.67 34.76 61.03 43.35 61.03 55.26 24.19 46.73 24.19 39.02 51.7"/><path class="cls-2" d="M90.29,29.82a17.38,17.38,0,0,0-14-6.63,17.87,17.87,0,0,0-7.64,1.57A17.39,17.39,0,0,0,62.92,29a18.83,18.83,0,0,0-3.67,6.2A21.49,21.49,0,0,0,58,42.65a24.19,24.19,0,0,0,1.21,7.84,16.91,16.91,0,0,0,3.6,6.13,16.41,16.41,0,0,0,5.84,4A20.71,20.71,0,0,0,76.55,62a21.06,21.06,0,0,0,5.92-.82,16.89,16.89,0,0,0,5.1-2.42,15.62,15.62,0,0,0,3.9-4,15.14,15.14,0,0,0,2.27-5.34H85.81a9.18,9.18,0,0,1-3.34,4.6,10.34,10.34,0,0,1-5.92,1.53A10.81,10.81,0,0,1,72,54.73a9.15,9.15,0,0,1-3.16-2.39A10.2,10.2,0,0,1,67,48.85a13.66,13.66,0,0,1-.62-4.14H94.26a20.56,20.56,0,0,0-.55-8A19.2,19.2,0,0,0,90.29,29.82Zm-24,9.55a10.45,10.45,0,0,1,.84-3.85,10.24,10.24,0,0,1,2.06-3.1,9.13,9.13,0,0,1,3.09-2.07,10.26,10.26,0,0,1,4-.75,9,9,0,0,1,3.86.82,9.53,9.53,0,0,1,2.94,2.14A10,10,0,0,1,85,35.66a13,13,0,0,1,.84,3.71Z"/><path class="cls-2" d="M132.22,29.82a17.38,17.38,0,0,0-14-6.63,17.87,17.87,0,0,0-7.64,1.57A17.5,17.5,0,0,0,104.85,29a19,19,0,0,0-3.67,6.2,21.49,21.49,0,0,0-1.29,7.45,24.19,24.19,0,0,0,1.22,7.84,16.64,16.64,0,0,0,3.6,6.13,16.32,16.32,0,0,0,5.84,4A20.62,20.62,0,0,0,118.48,62a21.06,21.06,0,0,0,5.92-.82,17,17,0,0,0,5.11-2.42,15.75,15.75,0,0,0,3.89-4,15,15,0,0,0,2.28-5.34h-7.94a9.12,9.12,0,0,1-3.34,4.6,10.34,10.34,0,0,1-5.92,1.53,10.73,10.73,0,0,1-4.55-.89,9,9,0,0,1-3.16-2.39,10,10,0,0,1-1.88-3.49,14,14,0,0,1-.62-4.14h27.92a20.56,20.56,0,0,0-.55-8A19.2,19.2,0,0,0,132.22,29.82Zm-24,9.55a10.65,10.65,0,0,1,.84-3.85,10.24,10.24,0,0,1,2.06-3.1,9.22,9.22,0,0,1,3.09-2.07,10.29,10.29,0,0,1,4-.75,9,9,0,0,1,3.86.82,9.53,9.53,0,0,1,2.94,2.14,9.86,9.86,0,0,1,1.91,3.1,12.36,12.36,0,0,1,.84,3.71Z"/></g></g></svg>